<?xml version="1.0" encoding="utf-8"?><!--Generator: Adobe Illustrator 24.0.1, SVG Export Plug-In . SVG Version: 6.00 Build 0)--><svg version="1.1" id="Layer_1" xmlns="http://www.w3.org/2000/svg" xmlns:xlink="http://www.w3.org/1999/xlink" x="0px" y="0px" viewBox="0 0 100 100" enable-background="new 0 0 100 100" xml:space="preserve"><path fill="#FEE1C5" stroke="#323334" stroke-width="3.5" stroke-linecap="round" stroke-linejoin="round" stroke-miterlimit="10" d=" M83.56,46.46c-13.64,0-24.69-11.06-24.69-24.69c0-2.59,0.4-5.1,1.14-7.44c-10,3.16-17.25,12.51-17.25,23.55 c0,13.64,11.06,24.69,24.69,24.69c11.04,0,20.39-7.25,23.55-17.25C88.65,46.06,86.15,46.46,83.56,46.46z"/><path fill="#A0C8D7" stroke="#323334" stroke-width="3.5" stroke-linecap="round" stroke-linejoin="round" stroke-miterlimit="10" d=" M17.45,61.49c-0.1-0.78-0.16-1.58-0.16-2.39c0-10.1,8.19-18.3,18.3-18.3c7.73,0,14.33,4.79,17.01,11.56 c1.53-0.77,3.25-1.21,5.08-1.21c5.84,0,10.64,4.39,11.31,10.05c5.4,1.35,9.41,6.22,9.41,12.04c0,6.75-5.38,12.23-12.08,12.41v0.02 H21.43C14.56,85.68,9,80.11,9,73.25C9,67.78,12.54,63.15,17.45,61.49z"/><metadata xmlns:d="https://loading.io/stock/">
<d:name>weather</d:name>
<d:tags>weather,nature,sky,froecast,moon,cloudy,night</d:tags>
<d:license>by</d:license>
<d:slug>cqty2r</d:slug>
</metadata></svg>